<svg width="28" height="31" viewBox="0 0 28 31" fill="none" xmlns="http://www.w3.org/2000/svg">
<path d="M26.1032 0H1.89684C0.850882 0 0 0.823258 0 1.83512V29.1649C0 30.1768 0.850944 31 1.89684 31H26.1032C27.1491 31 28 30.1767 28 29.1649V1.83512C28 0.823258 27.1491 0 26.1032 0ZM1.51746 1.83512C1.51746 1.63277 1.68762 1.46808 1.89684 1.46808H26.1032C26.3123 1.46808 26.4825 1.63271 26.4825 1.83512V8.19861H1.51746V1.83512ZM8.82749 29.5319H1.89684C1.68768 29.5319 1.51746 29.3672 1.51746 29.1649V20.3314H8.82749V29.5319ZM8.82749 18.8634H1.51746V9.66675H8.82749V18.8634ZM17.655 29.532H10.3449V20.3314H17.655V29.532ZM17.655 18.8634H10.3449V9.66675H17.655V18.8634ZM26.4825 29.1649C26.4825 29.3672 26.3123 29.532 26.1032 29.532H19.1724V9.66675H26.4825V29.1649Z" fill="#E7000E"/>
<path d="M7.04831 13.531H5.9312V12.4503C5.9312 12.0449 5.5915 11.7162 5.17244 11.7162C4.75339 11.7162 4.41368 12.0449 4.41368 12.4503V13.531H3.29657C2.87752 13.531 2.53781 13.8598 2.53781 14.2651C2.53781 14.6705 2.87752 14.9992 3.29657 14.9992H4.41368V16.08C4.41368 16.4854 4.75339 16.8141 5.17244 16.8141C5.5915 16.8141 5.9312 16.4854 5.9312 16.08V14.9992H7.04831C7.46737 14.9992 7.80707 14.6705 7.80707 14.2651C7.80707 13.8598 7.46737 13.531 7.04831 13.531Z" fill="#E7000E"/>
<path d="M15.9134 13.531H12.0866C11.6675 13.531 11.3278 13.8598 11.3278 14.2651C11.3278 14.6705 11.6675 14.9992 12.0866 14.9992H15.9134C16.3324 14.9992 16.6721 14.6705 16.6721 14.2651C16.6721 13.8598 16.3324 13.531 15.9134 13.531Z" fill="#E7000E"/>
<path d="M6.2455 24.9336L7.1614 24.0475C7.45767 23.7609 7.45767 23.2961 7.1614 23.0093C6.86513 22.7227 6.38468 22.7227 6.08829 23.0093L5.17238 23.8954L4.25648 23.0093C3.96021 22.7227 3.47975 22.7227 3.18336 23.0093C2.88709 23.2959 2.88709 23.7608 3.18336 24.0475L4.09933 24.9336L3.18342 25.8197C2.88715 26.1063 2.88715 26.5712 3.18342 26.8578C3.33162 27.0011 3.52575 27.0728 3.71995 27.0728C3.91408 27.0728 4.10834 27.0011 4.25648 26.8578L5.17238 25.9717L6.08829 26.8578C6.23648 27.0011 6.43062 27.0728 6.62481 27.0728C6.81901 27.0728 7.01321 27.0011 7.16134 26.8578C7.45761 26.5712 7.45761 26.1063 7.16134 25.8197L6.2455 24.9336Z" fill="#E7000E"/>
<path d="M15.9886 23.0094C15.6923 22.7228 15.212 22.7228 14.9155 23.0094L12.0107 25.8197C11.7145 26.1063 11.7145 26.5712 12.0107 26.8579C12.1589 27.0012 12.3531 27.0729 12.5473 27.0729C12.7415 27.0729 12.9356 27.0012 13.0838 26.8579L15.9886 24.0476C16.2849 23.7609 16.2849 23.2961 15.9886 23.0094Z" fill="#E7000E"/>
<path d="M12.5473 24.1548C12.9047 24.1548 13.1945 23.8745 13.1945 23.5286C13.1945 23.1828 12.9047 22.9024 12.5473 22.9024C12.1898 22.9024 11.9 23.1828 11.9 23.5286C11.9 23.8745 12.1898 24.1548 12.5473 24.1548Z" fill="#E7000E"/>
<path d="M15.4525 26.9647C15.8099 26.9647 16.0996 26.6844 16.0996 26.3386C16.0996 25.9928 15.8099 25.7126 15.4525 25.7126C15.0951 25.7126 14.8054 25.9928 14.8054 26.3386C14.8054 26.6844 15.0951 26.9647 15.4525 26.9647Z" fill="#E7000E"/>
<path d="M24.7445 17.5842H20.8662C20.4472 17.5842 20.1074 17.9129 20.1074 18.3183C20.1074 18.7237 20.4472 19.0524 20.8662 19.0524H24.7445C25.1635 19.0524 25.5033 18.7237 25.5033 18.3183C25.5033 17.9129 25.1636 17.5842 24.7445 17.5842Z" fill="#E7000E"/>
<path d="M24.7445 20.1463H20.8662C20.4472 20.1463 20.1074 20.4751 20.1074 20.8804C20.1074 21.2858 20.4472 21.6145 20.8662 21.6145H24.7445C25.1635 21.6145 25.5033 21.2858 25.5033 20.8804C25.5033 20.4751 25.1636 20.1463 24.7445 20.1463Z" fill="#E7000E"/>
</svg>
