<svg width="57" height="56" viewBox="0 0 57 56" fill="none" xmlns="http://www.w3.org/2000/svg">
<path d="M57 11.0037H41.741C42.556 9.83875 43 8.45475 43 6.99675C43 5.12175 42.274 3.36375 40.957 2.04675C38.228 -0.68225 33.787 -0.68225 31.058 2.04675L28.229 4.87575L25.401 2.04675C22.672 -0.68225 18.231 -0.68225 15.502 2.04675C14.185 3.36375 13.459 5.12175 13.459 6.99675C13.459 8.45475 13.903 9.83875 14.718 11.0037H0V25.0037H5V55.0037H53V25.0037H57V11.0037ZM32.472 3.46075C34.422 1.51175 37.594 1.51175 39.543 3.46075C40.482 4.40075 41 5.65575 41 6.99675C41 8.33675 40.482 9.59275 39.543 10.5317L39.071 11.0037H24.929L32.472 3.46075ZM16.916 10.5317C15.977 9.59275 15.459 8.33675 15.459 6.99675C15.459 5.65575 15.977 4.40075 16.916 3.46075C18.866 1.51175 22.038 1.51175 23.987 3.46075L26.815 6.28975L23.28 9.82475C23.073 10.0317 22.883 10.2657 22.699 10.5138C22.645 10.5868 22.592 10.6658 22.54 10.7428C22.48 10.8308 22.417 10.9097 22.36 11.0028H17.388L16.916 10.5317ZM2 23.0037V13.0037H28V23.0037H2ZM28 25.0037V37.0037H7V25.0037H28ZM7 39.0037H28V53.0037H7V39.0037ZM30 53.0037V39.0037H51V53.0037H30ZM51 37.0037H30V25.0037H51V37.0037ZM55 23.0037H30V13.0037H55V23.0037Z" fill="#333333"/>
</svg>
