<svg width="64" height="59" viewBox="0 0 64 59" fill="none" xmlns="http://www.w3.org/2000/svg">
<path d="M50.1589 31.1085V21.4606C50.2048 14.105 45.2864 9.22636 41.0603 7.28369C39.8496 6.72695 38.6016 6.29787 37.3333 5.97927V5.36354C37.3333 2.40608 34.9408 0 32 0C29.0592 0 26.6667 2.40608 26.6667 5.36354V6.0726C25.5243 6.38261 24.4011 6.78702 23.3109 7.29334C18.6411 9.45806 13.9093 14.6757 13.8667 21.4542V31.1085C13.8667 37.961 11.4603 43.8405 6.71467 48.584C6.432 48.8672 6.3296 49.2845 6.44907 49.6674C6.56853 50.0504 6.89173 50.3336 7.28533 50.4022L17.4091 52.1604C19.2949 52.4876 21.0315 52.7558 22.6837 52.9767C24.5451 56.6454 28.2005 59 32.1941 59C36.1888 59 39.8453 56.6443 41.7056 52.9735C43.3515 52.7536 45.0795 52.4865 46.9547 52.1604L57.0773 50.4022C57.4709 50.3347 57.7931 50.0504 57.9136 49.6674C58.0341 49.2856 57.9317 48.8672 57.648 48.584C52.6795 43.6163 50.1589 37.7368 50.1589 31.1085ZM28.8 5.36354C28.8 3.58928 30.2357 2.14542 32 2.14542C33.7643 2.14542 35.2 3.58928 35.2 5.36354V5.55877C33.0741 5.25198 30.9173 5.26485 28.8 5.60919V5.36354ZM32.1952 56.8535C29.4944 56.8535 26.9707 55.504 25.3504 53.2975C27.7344 53.5442 29.9595 53.6686 32.1835 53.6686C34.416 53.6686 36.6485 53.5442 39.0421 53.2943C37.4208 55.503 34.896 56.8535 32.1952 56.8535ZM46.5931 50.045C44.5461 50.4001 42.6699 50.6887 40.8971 50.9161C40.8949 50.9161 40.8928 50.9161 40.8896 50.9161C40.1077 51.0158 39.3483 51.1027 38.6048 51.1778C38.5984 51.1778 38.5931 51.1789 38.5867 51.1789C37.9051 51.2475 37.2395 51.3033 36.5803 51.3505C36.4565 51.3591 36.3328 51.3677 36.2101 51.3752C35.6395 51.4127 35.0752 51.4428 34.5141 51.4642C34.4 51.4685 34.2848 51.475 34.1707 51.4782C32.8437 51.5232 31.5349 51.5232 30.2091 51.4792C30.0907 51.475 29.9712 51.4685 29.8528 51.4642C29.3013 51.4417 28.7456 51.4138 28.1835 51.3763C28.0501 51.3677 27.9168 51.3591 27.7824 51.3494C27.1435 51.3033 26.4971 51.2497 25.8368 51.1832C25.8123 51.181 25.7888 51.1789 25.7643 51.1767C25.0261 51.1027 24.2731 51.0158 23.4987 50.9171C23.4955 50.9171 23.4923 50.9171 23.4891 50.9171C21.7099 50.6908 19.8261 50.4001 17.7707 50.044L9.6 48.6258C13.8485 43.7407 16 37.858 16 31.1085V21.4606C16.0363 15.6304 20.1472 11.1229 24.2037 9.24138C25.4101 8.6825 26.6613 8.26521 27.9339 7.97236C27.9445 7.97022 27.9563 7.97129 27.9669 7.96915C30.5963 7.37487 33.3931 7.34805 36.0523 7.8962C36.0661 7.89942 36.08 7.89298 36.0939 7.89513C37.4848 8.1869 38.8544 8.62886 40.1739 9.23494C44.1088 11.0446 48.0629 15.5221 48.0256 21.4552V31.1096C48.0256 37.5812 50.3456 43.5991 54.7595 48.628L46.5931 50.045Z" fill="#333333"/>
<path d="M38.8448 12.1624C34.7115 10.2626 29.6501 10.2605 25.5445 12.1645C23.2032 13.2501 19.232 16.4264 19.2 21.4477C19.1968 22.0399 19.6704 22.5226 20.2603 22.5269C20.2624 22.5269 20.2645 22.5269 20.2667 22.5269C20.8523 22.5269 21.3301 22.0517 21.3333 21.4606C21.3579 17.5162 24.5536 14.9868 26.4373 14.1125C29.9893 12.4638 34.3797 12.4681 37.9563 14.1125C38.4928 14.3593 39.1253 14.1222 39.3707 13.5837C39.616 13.0441 39.3792 12.408 38.8448 12.1624Z" fill="#333333"/>
<path d="M5.12213 21.7685C4.70507 21.349 4.03093 21.349 3.61387 21.7685C1.2832 24.1123 0 27.2318 0 30.5539C0 33.8761 1.2832 36.9966 3.61387 39.3394C3.82187 39.5486 4.09493 39.6537 4.368 39.6537C4.64107 39.6537 4.91413 39.5486 5.12213 39.3394C5.5392 38.92 5.5392 38.242 5.12213 37.8226C3.19467 35.8842 2.13333 33.3033 2.13333 30.5539C2.13333 27.8046 3.19467 25.2226 5.12213 23.2853C5.53813 22.8658 5.53813 22.1879 5.12213 21.7685Z" fill="#333333"/>
<path d="M8.85867 37.2122C9.13173 37.2122 9.4048 37.1071 9.6128 36.8979C10.0299 36.4785 10.0299 35.8006 9.6128 35.3811C6.88427 32.6371 6.88427 28.1736 9.6128 25.4307C10.0299 25.0113 10.0299 24.3333 9.6128 23.9139C9.19573 23.4944 8.5216 23.4944 8.10453 23.9139C4.54507 27.4935 4.54507 33.3194 8.10453 36.8979C8.31253 37.1082 8.5856 37.2122 8.85867 37.2122Z" fill="#333333"/>
<path d="M60.3861 21.7685C59.9691 21.349 59.2949 21.349 58.8779 21.7685C58.4608 22.1879 58.4608 22.8658 58.8779 23.2853C60.8053 25.2237 61.8667 27.8046 61.8667 30.5539C61.8667 33.3033 60.8053 35.8842 58.8779 37.8226C58.4608 38.242 58.4608 38.92 58.8779 39.3394C59.0859 39.5486 59.3589 39.6537 59.632 39.6537C59.9051 39.6537 60.1781 39.5486 60.3861 39.3394C62.7168 36.9966 64 33.8761 64 30.5539C64 27.2318 62.7168 24.1123 60.3861 21.7685Z" fill="#333333"/>
<path d="M54.3872 23.9139C53.9701 24.3333 53.9701 25.0113 54.3872 25.4307C57.1157 28.1747 57.1157 32.6382 54.3872 35.3811C53.9701 35.8006 53.9701 36.4785 54.3872 36.8979C54.5952 37.1071 54.8683 37.2122 55.1413 37.2122C55.4144 37.2122 55.6875 37.1071 55.8955 36.8979C59.4549 33.3183 59.4549 27.4924 55.8955 23.9139C55.4784 23.4944 54.8032 23.4944 54.3872 23.9139Z" fill="#333333"/>
</svg>
