<svg width="71" height="59" viewBox="0 0 71 59" fill="none" xmlns="http://www.w3.org/2000/svg">
<path d="M52.0569 45.3209C51.4823 45.3209 51.0168 45.7869 51.0168 46.3621C51.0168 46.9372 51.4823 47.4032 52.0569 47.4032H52.326C52.9005 47.4032 53.3661 46.9372 53.3661 46.3621C53.3661 45.7869 52.9005 45.3209 52.326 45.3209H52.0569Z" fill="#333333"/>
<path d="M48.5571 30.6078H50.5763C51.1508 30.6078 51.6163 30.1418 51.6163 29.5666C51.6163 28.9915 51.1508 28.5255 50.5763 28.5255H48.5571C47.9825 28.5255 47.517 28.9915 47.517 29.5666C47.517 30.1418 47.9827 30.6078 48.5571 30.6078Z" fill="#333333"/>
<path d="M48.5571 26.609H52.5953C53.1698 26.609 53.6354 26.143 53.6354 25.5678C53.6354 24.9927 53.1698 24.5266 52.5953 24.5266H48.5571C47.9825 24.5266 47.517 24.9927 47.517 25.5678C47.517 26.143 47.9827 26.609 48.5571 26.609Z" fill="#333333"/>
<path d="M48.5571 34.6068H52.5953C53.1698 34.6068 53.6354 34.1407 53.6354 33.5656C53.6354 32.9904 53.1698 32.5244 52.5953 32.5244H48.5571C47.9825 32.5244 47.517 32.9904 47.517 33.5656C47.517 34.1407 47.9827 34.6068 48.5571 34.6068Z" fill="#333333"/>
<path d="M56.2298 19.1949H52.1915C51.617 19.1949 51.1515 19.6609 51.1515 20.236C51.1515 20.8112 51.617 21.2772 52.1915 21.2772H55.1897V41.3221H42.4629V21.2772H45.5283C46.1028 21.2772 46.5684 20.8112 46.5684 20.236C46.5684 19.6609 46.1028 19.1949 45.5283 19.1949H41.4228C40.8483 19.1949 40.3828 19.6609 40.3828 20.236V52.3603C40.3828 52.9355 40.8483 53.4015 41.4228 53.4015H44.6044C45.0298 54.5668 46.1486 55.401 47.4582 55.401H50.1942C51.869 55.401 53.2314 54.0371 53.2314 52.3605C53.2314 50.6839 51.869 49.3198 50.1942 49.3198H47.4582C46.1488 49.3198 45.0301 50.1537 44.6045 51.3192H42.4629V43.4043H55.1897V51.3192H54.8837C54.3092 51.3192 53.8437 51.7852 53.8437 52.3603C53.8437 52.9355 54.3092 53.4015 54.8837 53.4015H56.2298C56.8043 53.4015 57.2698 52.9355 57.2698 52.3603V20.236C57.2698 19.6609 56.8043 19.1949 56.2298 19.1949ZM47.4582 51.4022H50.1942C50.7219 51.4022 51.1513 51.832 51.1513 52.3605C51.1513 52.8887 50.722 53.3186 50.1942 53.3186H47.4582C46.9306 53.3186 46.5011 52.8888 46.5011 52.3605C46.5011 51.832 46.9306 51.4022 47.4582 51.4022Z" fill="#333333"/>
<path d="M27.9619 16.816C27.3876 16.816 26.9219 17.282 26.9219 17.8571C26.9219 18.4323 27.3876 18.8983 27.9619 18.8983H34.4232C34.9976 18.8983 35.4633 18.4323 35.4633 17.8571C35.4633 17.282 34.9976 16.816 34.4232 16.816H27.9619Z" fill="#333333"/>
<path d="M32.0002 28.8127C31.4258 28.8127 30.9602 29.2787 30.9602 29.8539C30.9602 30.429 31.4258 30.895 32.0002 30.895H32.2694C32.8437 30.895 33.3094 30.429 33.3094 29.8539C33.3094 29.2787 32.8437 28.8127 32.2694 28.8127H32.0002Z" fill="#333333"/>
<path d="M27.9619 28.8127C27.3876 28.8127 26.9219 29.2787 26.9219 29.8539C26.9219 30.429 27.3876 30.895 27.9619 30.895H28.2311C28.8055 30.895 29.2711 30.429 29.2711 29.8539C29.2711 29.2787 28.8055 28.8127 28.2311 28.8127H27.9619Z" fill="#333333"/>
<path d="M35.2256 25.8549C35.2256 25.2798 34.7599 24.8137 34.1855 24.8137H27.9618C27.3874 24.8137 26.9218 25.2798 26.9218 25.8549C26.9218 26.4301 27.3874 26.8961 27.9618 26.8961H34.1855C34.76 26.8961 35.2256 26.4301 35.2256 25.8549Z" fill="#333333"/>
<path d="M27.9619 22.8973H29.308C29.8824 22.8973 30.3481 22.4312 30.3481 21.8561C30.3481 21.281 29.8824 20.8149 29.308 20.8149H27.9619C27.3876 20.8149 26.9219 21.281 26.9219 21.8561C26.9219 22.4312 27.3876 22.8973 27.9619 22.8973Z" fill="#333333"/>
<path d="M27.9619 10.9006H42.7689C43.3434 10.9006 43.8089 10.4345 43.8089 9.85939C43.8089 9.28424 43.3434 8.81821 42.7689 8.81821H27.9619C27.3876 8.81821 26.9219 9.28424 26.9219 9.85939C26.9219 10.4345 27.3876 10.9006 27.9619 10.9006Z" fill="#333333"/>
<path d="M48.6749 21.2772H48.9441C49.5186 21.2772 49.9841 20.8112 49.9841 20.236C49.9841 19.6609 49.5186 19.1949 48.9441 19.1949H48.6749C48.1004 19.1949 47.6349 19.6609 47.6349 20.236C47.6349 20.811 48.1004 21.2772 48.6749 21.2772Z" fill="#333333"/>
<path d="M48.6917 45.3209C48.1172 45.3209 47.6517 45.7869 47.6517 46.3621C47.6517 46.9372 48.1172 47.4032 48.6917 47.4032H48.9609C49.5354 47.4032 50.0009 46.9372 50.0009 46.3621C50.0009 45.7869 49.5354 45.3209 48.9609 45.3209H48.6917Z" fill="#333333"/>
<path d="M27.9619 14.8994H34.796C35.3703 14.8994 35.836 14.4333 35.836 13.8582C35.836 13.2831 35.3705 12.817 34.796 12.817H27.9619C27.3876 12.817 26.9219 13.2831 26.9219 13.8582C26.9219 14.4333 27.3876 14.8994 27.9619 14.8994Z" fill="#333333"/>
<path d="M8.8474 10.9006H9.11657C9.69094 10.9006 10.1566 10.4345 10.1566 9.85939C10.1566 9.28424 9.69094 8.81821 9.11657 8.81821H8.8474C8.27303 8.81821 7.80736 9.28424 7.80736 9.85939C7.80736 10.4345 8.27303 10.9006 8.8474 10.9006Z" fill="#333333"/>
<path d="M13.1548 22.8973H15.847C16.4214 22.8973 16.887 22.4312 16.887 21.8561C16.887 21.281 16.4214 20.8149 15.847 20.8149H13.1548C12.5805 20.8149 12.1148 21.281 12.1148 21.8561C12.1148 22.4312 12.5805 22.8973 13.1548 22.8973Z" fill="#333333"/>
<path d="M8.8474 14.8994H9.11657C9.69094 14.8994 10.1566 14.4333 10.1566 13.8582C10.1566 13.2831 9.69094 12.817 9.11657 12.817H8.8474C8.27303 12.817 7.80736 13.2831 7.80736 13.8582C7.80736 14.4333 8.27303 14.8994 8.8474 14.8994Z" fill="#333333"/>
<path d="M8.8474 22.8973H9.11657C9.69094 22.8973 10.1566 22.4312 10.1566 21.8561C10.1566 21.281 9.69094 20.8149 9.11657 20.8149H8.8474C8.27303 20.8149 7.80736 21.281 7.80736 21.8561C7.80736 22.4312 8.27303 22.8973 8.8474 22.8973Z" fill="#333333"/>
<path d="M8.8474 18.8983H9.11657C9.69094 18.8983 10.1566 18.4323 10.1566 17.8571C10.1566 17.282 9.69094 16.816 9.11657 16.816H8.8474C8.27303 16.816 7.80736 17.282 7.80736 17.8571C7.80736 18.4323 8.27303 18.8983 8.8474 18.8983Z" fill="#333333"/>
<path d="M69.96 37.323H66.9617V3.70714C66.9617 1.66297 65.2876 0 63.2295 0H7.77048C5.71259 0 4.03826 1.66297 4.03826 3.70714V37.3231H1.04004C0.46566 37.3231 0 37.7892 0 38.3643C0 41.8783 2.88202 44.7374 6.42439 44.7371H33.3464C33.9208 44.7371 34.3865 44.2711 34.3865 43.696C34.3865 43.1208 33.9208 42.6548 33.3464 42.6548H6.42453C4.39243 42.6548 2.68178 41.2697 2.20946 39.4052H27.5856C28.1367 40.2093 29.0652 40.7383 30.1156 40.7383H33.3463C33.9207 40.7383 34.3863 40.2723 34.3863 39.6971C34.3863 39.122 33.9207 38.656 33.3463 38.656H30.1156C29.5757 38.656 29.1365 38.2262 29.1365 37.6977C29.1365 37.1694 29.5758 36.7395 30.1156 36.7395H33.38C33.9544 36.7395 34.42 36.2735 34.42 35.6983C34.42 35.1232 33.9544 34.6572 33.38 34.6572H30.1156C28.5564 34.6572 27.2659 35.8226 27.0796 37.323H23.6176V6.65548H64.8815V37.3231H64.3063C63.7318 37.3231 63.2663 37.7892 63.2663 38.3643C63.2663 38.9394 63.7318 39.4055 64.3063 39.4055H68.7907C68.3182 41.2699 66.6076 42.6551 64.5756 42.6551H64.1045C63.53 42.6551 63.0645 43.1211 63.0645 43.6962C63.0645 44.2714 63.53 44.7374 64.1045 44.7374H64.5756C68.118 44.7374 71 41.8783 71 38.3643C71 37.7892 70.5345 37.3231 69.96 37.323ZM21.5374 37.323H6.11834V6.65548H21.5374V37.323ZM64.8817 4.57312H6.11834V3.70714C6.11834 2.81118 6.85954 2.08235 7.77048 2.08235H63.2295C64.1405 2.08235 64.8817 2.81118 64.8817 3.70714V4.57312Z" fill="#333333"/>
<path d="M13.1548 18.8983H18.5392C19.1136 18.8983 19.5792 18.4323 19.5792 17.8571C19.5792 17.282 19.1136 16.816 18.5392 16.816H13.1548C12.5805 16.816 12.1148 17.282 12.1148 17.8571C12.1148 18.4323 12.5805 18.8983 13.1548 18.8983Z" fill="#333333"/>
<path d="M45.4611 28.5255H45.1919C44.6174 28.5255 44.1519 28.9915 44.1519 29.5666C44.1519 30.1418 44.6174 30.6078 45.1919 30.6078H45.4611C46.0356 30.6078 46.5011 30.1418 46.5011 29.5666C46.5011 28.9915 46.0356 28.5255 45.4611 28.5255Z" fill="#333333"/>
<path d="M45.4611 32.5244H45.1919C44.6174 32.5244 44.1519 32.9904 44.1519 33.5656C44.1519 34.1407 44.6174 34.6068 45.1919 34.6068H45.4611C46.0356 34.6068 46.5011 34.1407 46.5011 33.5656C46.5011 32.9904 46.0356 32.5244 45.4611 32.5244Z" fill="#333333"/>
<path d="M45.3264 45.3209C44.7519 45.3209 44.2864 45.7869 44.2864 46.3621C44.2864 46.9372 44.7519 47.4032 45.3264 47.4032H45.5956C46.1701 47.4032 46.6356 46.9372 46.6356 46.3621C46.6356 45.7869 46.1701 45.3209 45.5956 45.3209H45.3264Z" fill="#333333"/>
<path d="M45.4611 24.5266H45.1919C44.6174 24.5266 44.1519 24.9927 44.1519 25.5678C44.1519 26.143 44.6174 26.609 45.1919 26.609H45.4611C46.0356 26.609 46.5011 26.143 46.5011 25.5678C46.5011 24.9927 46.0356 24.5266 45.4611 24.5266Z" fill="#333333"/>
<path d="M13.1548 14.8994H15.847C16.4214 14.8994 16.887 14.4333 16.887 13.8582C16.887 13.2831 16.4214 12.817 15.847 12.817H13.1548C12.5805 12.817 12.1148 13.2831 12.1148 13.8582C12.1148 14.4333 12.5805 14.8994 13.1548 14.8994Z" fill="#333333"/>
<path d="M13.1548 10.9006H18.5392C19.1136 10.9006 19.5792 10.4345 19.5792 9.85939C19.5792 9.28424 19.1136 8.81821 18.5392 8.81821H13.1548C12.5805 8.81821 12.1148 9.28424 12.1148 9.85939C12.1148 10.4345 12.5805 10.9006 13.1548 10.9006Z" fill="#333333"/>
<path d="M58.8815 15.4447H38.7713C37.4332 15.4447 36.3445 16.5346 36.3445 17.8741V28.8134C36.3323 28.813 36.32 28.8127 36.3076 28.8127H36.0385C35.4641 28.8127 34.9984 29.2787 34.9984 29.8539C34.9984 30.429 35.4641 30.895 36.0385 30.895H36.3076C36.32 30.895 36.3323 30.8948 36.3445 30.8943V56.5706C36.3445 57.9101 37.4332 59 38.7713 59H58.8813C60.2194 59 61.3081 57.9101 61.3081 56.5706V17.8741C61.3081 16.5344 60.2195 15.4447 58.8815 15.4447ZM59.2281 56.5706C59.2281 56.762 59.0727 56.9176 58.8815 56.9176H38.7713C38.58 56.9176 38.4246 56.762 38.4246 56.5706V17.8741C38.4246 17.6826 38.58 17.527 38.7713 17.527H58.8813C59.0726 17.527 59.228 17.6826 59.228 17.8741L59.2281 56.5706Z" fill="#333333"/>
</svg>
