<svg width="66" height="66" viewBox="0 0 66 66" fill="none" xmlns="http://www.w3.org/2000/svg">
<path d="M7.12359 3.71157C5.5606 3.71157 4.28916 4.98488 4.28916 6.54905C4.28916 8.11372 5.5606 9.38704 7.12359 9.38704C8.68659 9.38704 9.95853 8.11372 9.95853 6.54905C9.95853 4.98488 8.68659 3.71157 7.12359 3.71157ZM7.12359 7.45287C6.6261 7.45287 6.22075 7.04759 6.22075 6.54905C6.22075 6.05102 6.6261 5.64573 7.12359 5.64573C7.6216 5.64573 8.02644 6.05102 8.02644 6.54905C8.02644 7.04759 7.6216 7.45287 7.12359 7.45287Z" fill="#333333"/>
<path d="M14.3408 3.71157C12.7779 3.71157 11.5059 4.98488 11.5059 6.54905C11.5059 8.11372 12.7779 9.38704 14.3408 9.38704C15.9038 9.38704 17.1753 8.11372 17.1753 6.54905C17.1753 4.98488 15.9038 3.71157 14.3408 3.71157ZM14.3408 7.45287C13.8428 7.45287 13.438 7.04759 13.438 6.54905C13.438 6.05102 13.8428 5.64573 14.3408 5.64573C14.8383 5.64573 15.2437 6.05102 15.2437 6.54905C15.2437 7.04759 14.8383 7.45287 14.3408 7.45287Z" fill="#333333"/>
<path d="M21.5576 3.71157C19.9946 3.71157 18.7232 4.98488 18.7232 6.54905C18.7232 8.11372 19.9946 9.38704 21.5576 9.38704C23.1206 9.38704 24.3925 8.11372 24.3925 6.54905C24.3925 4.98488 23.1206 3.71157 21.5576 3.71157ZM21.5576 7.45287C21.0601 7.45287 20.6547 7.04759 20.6547 6.54905C20.6547 6.05102 21.0601 5.64573 21.5576 5.64573C22.0556 5.64573 22.4604 6.05102 22.4604 6.54905C22.4604 7.04759 22.0556 7.45287 21.5576 7.45287Z" fill="#333333"/>
<path d="M64.9607 19.076C65.4944 19.076 65.927 18.643 65.927 18.1087L66 4.25546C66 1.90896 64.0931 0 61.7491 0H4.25139C1.90741 0 0 1.90946 0 4.25597V51.0434C0 53.1701 1.56651 54.9374 3.60484 55.2499C3.81583 55.2827 4.03185 55.2993 4.25139 55.2993H23.0465V58.7674H20.13C18.1848 58.7674 16.6017 60.3518 16.6017 62.299V64.3885C16.6017 65.2771 17.3238 66 18.2115 66H22.8179C23.3512 66 23.7837 65.567 23.7837 65.0327C23.7837 64.4988 23.3512 64.0658 22.8179 64.0658H18.5338V62.299C18.5338 61.4179 19.2498 60.7011 20.13 60.7011H45.797C46.6772 60.7011 47.3932 61.4179 47.3932 62.299V64.0658H28.8146C28.2813 64.0658 27.8488 64.4988 27.8488 65.0327C27.8488 65.567 28.2813 66 28.8146 66H47.715C48.6027 66 49.3248 65.2771 49.3248 64.3885V62.299C49.3248 60.3518 47.7421 58.7674 45.7965 58.7674H42.88V55.2993H61.6756C61.8951 55.2993 62.1112 55.2827 62.3216 55.2499C64.3605 54.9374 65.9265 53.1701 65.9265 51.0434V24.1042C65.9265 23.5699 65.4944 23.1369 64.9607 23.1369C64.4274 23.1369 63.9949 23.5699 63.9949 24.1042V45.4415H33.8006V13.1535H63.9949V18.1087C63.9949 18.643 64.4274 19.076 64.9607 19.076ZM2.00308 13.1535H31.8685V45.3719H2.00308V13.1535ZM40.9484 58.7674H24.9786V55.2993H40.9484V58.7674ZM63.9949 47.3757V51.0434C63.9949 52.2436 63.0805 53.2341 61.9123 53.3536C61.8342 53.3611 61.7557 53.3652 61.6756 53.3652H4.25139C4.17133 53.3652 4.09227 53.3611 4.01472 53.3536C2.84651 53.2341 1.93208 52.2436 1.93208 51.0434V47.3757H63.9949ZM2.00308 11.2194V4.25546C2.00308 2.9756 3.0434 1.93416 4.32239 1.93416H61.6756C62.9546 1.93416 63.9949 2.9756 63.9949 4.25597V11.2194H2.00308Z" fill="#333333"/>
<path d="M6.04652 17.0073H10.9404C11.4737 17.0073 11.9062 16.5748 11.9062 16.0404C11.9062 15.5066 11.4737 15.0736 10.9404 15.0736H6.04652C5.51277 15.0736 5.08023 15.5066 5.08023 16.0404C5.08023 16.5748 5.51277 17.0073 6.04652 17.0073Z" fill="#333333"/>
<path d="M14.289 17.0073H16.6073C17.1405 17.0073 17.5731 16.5748 17.5731 16.0404C17.5731 15.5066 17.1405 15.0736 16.6073 15.0736H14.289C13.7552 15.0736 13.3232 15.5066 13.3232 16.0404C13.3232 16.5748 13.7552 17.0073 14.289 17.0073Z" fill="#333333"/>
<path d="M13.3871 18.4868H10.1675C9.63425 18.4868 9.20171 18.9198 9.20171 19.4541C9.20171 19.9879 9.63425 20.4209 10.1675 20.4209H13.3871C13.9209 20.4209 14.3534 19.9879 14.3534 19.4541C14.3534 18.9198 13.9209 18.4868 13.3871 18.4868Z" fill="#333333"/>
<path d="M28.5845 22.0224H25.3649C24.8316 22.0224 24.3991 22.4554 24.3991 22.9892C24.3991 23.523 24.8316 23.9561 25.3649 23.9561H28.5845C29.1183 23.9561 29.5503 23.523 29.5503 22.9892C29.5503 22.4554 29.1183 22.0224 28.5845 22.0224Z" fill="#333333"/>
<path d="M15.3837 19.4541C15.3837 19.9879 15.8162 20.4209 16.3495 20.4209H24.0768C24.6106 20.4209 25.0431 19.9879 25.0431 19.4541C25.0431 18.9198 24.6106 18.4868 24.0768 18.4868H16.3495C15.8162 18.4868 15.3837 18.9198 15.3837 19.4541Z" fill="#333333"/>
<path d="M12.2924 22.9892C12.2924 23.523 12.725 23.9561 13.2587 23.9561H14.933C15.4663 23.9561 15.8988 23.523 15.8988 22.9892C15.8988 22.4554 15.4663 22.0224 14.933 22.0224H13.2587C12.725 22.0224 12.2924 22.4554 12.2924 22.9892Z" fill="#333333"/>
<path d="M22.4025 23.9561C22.9363 23.9561 23.3688 23.523 23.3688 22.9892C23.3688 22.4554 22.9363 22.0224 22.4025 22.0224H17.7664C17.2327 22.0224 16.8001 22.4554 16.8001 22.9892C16.8001 23.523 17.2327 23.9561 17.7664 23.9561H22.4025Z" fill="#333333"/>
<path d="M11.9062 35.5222C11.9062 34.9879 11.4737 34.5554 10.9404 34.5554H6.04652C5.51277 34.5554 5.08023 34.9879 5.08023 35.5222C5.08023 36.0561 5.51277 36.4891 6.04652 36.4891H10.9404C11.4737 36.4891 11.9062 36.0561 11.9062 35.5222Z" fill="#333333"/>
<path d="M14.289 34.5554C13.7552 34.5554 13.3232 34.9879 13.3232 35.5222C13.3232 36.0561 13.7552 36.4891 14.289 36.4891H16.6073C17.1405 36.4891 17.5731 36.0561 17.5731 35.5222C17.5731 34.9879 17.1405 34.5554 16.6073 34.5554H14.289Z" fill="#333333"/>
<path d="M14.3534 38.9354C14.3534 38.4016 13.9209 37.9686 13.3871 37.9686H10.1675C9.63425 37.9686 9.20171 38.4016 9.20171 38.9354C9.20171 39.4697 9.63425 39.9027 10.1675 39.9027H13.3871C13.9209 39.9027 14.3534 39.4697 14.3534 38.9354Z" fill="#333333"/>
<path d="M14.933 41.5042H13.2587C12.725 41.5042 12.2924 41.9367 12.2924 42.471C12.2924 43.0049 12.725 43.4379 13.2587 43.4379H14.933C15.4663 43.4379 15.8988 43.0049 15.8988 42.471C15.8988 41.9367 15.4663 41.5042 14.933 41.5042Z" fill="#333333"/>
<path d="M28.5845 41.5042H25.3649C24.8316 41.5042 24.3991 41.9367 24.3991 42.471C24.3991 43.0049 24.8316 43.4379 25.3649 43.4379H28.5845C29.1183 43.4379 29.5503 43.0049 29.5503 42.471C29.5503 41.9367 29.1183 41.5042 28.5845 41.5042Z" fill="#333333"/>
<path d="M25.0431 38.9354C25.0431 38.4016 24.6106 37.9686 24.0768 37.9686H16.3495C15.8162 37.9686 15.3837 38.4016 15.3837 38.9354C15.3837 39.4697 15.8162 39.9027 16.3495 39.9027H24.0768C24.6106 39.9027 25.0431 39.4697 25.0431 38.9354Z" fill="#333333"/>
<path d="M22.4025 41.5042H17.7664C17.2327 41.5042 16.8001 41.9367 16.8001 42.471C16.8001 43.0049 17.2327 43.4379 17.7664 43.4379H22.4025C22.9363 43.4379 23.3688 43.0049 23.3688 42.471C23.3688 41.9367 22.9363 41.5042 22.4025 41.5042Z" fill="#333333"/>
<path d="M6.04652 28.3869H8.75104C9.28429 28.3869 9.71683 27.9539 9.71683 27.4201C9.71683 26.8858 9.28429 26.4533 8.75104 26.4533H6.04652C5.51277 26.4533 5.08023 26.8858 5.08023 27.4201C5.08023 27.9539 5.51277 28.3869 6.04652 28.3869Z" fill="#333333"/>
<path d="M22.3381 27.4201C22.3381 26.8858 21.906 26.4533 21.3723 26.4533H11.4556C10.9223 26.4533 10.4898 26.8858 10.4898 27.4201C10.4898 27.9539 10.9223 28.3869 11.4556 28.3869H21.3723C21.906 28.3869 22.3381 27.9539 22.3381 27.4201Z" fill="#333333"/>
<path d="M20.5354 30.8333C20.5354 30.2994 20.1029 29.8664 19.5691 29.8664H10.1675C9.63425 29.8664 9.20171 30.2994 9.20171 30.8333C9.20171 31.3676 9.63425 31.8006 10.1675 31.8006H19.5691C20.1029 31.8006 20.5354 31.3676 20.5354 30.8333Z" fill="#333333"/>
<path d="M22.2741 31.8006H24.0768C24.6106 31.8006 25.0431 31.3676 25.0431 30.8333C25.0431 30.2994 24.6106 29.8664 24.0768 29.8664H22.2741C21.7404 29.8664 21.3078 30.2994 21.3078 30.8333C21.3078 31.3676 21.7404 31.8006 22.2741 31.8006Z" fill="#333333"/>
<path d="M44.2169 37.3783H38.0355C37.5017 37.3783 37.0692 37.8113 37.0692 38.3451C37.0692 38.8794 37.5017 39.3119 38.0355 39.3119H44.2169C44.7507 39.3119 45.1832 38.8794 45.1832 38.3451C45.1832 37.8113 44.7507 37.3783 44.2169 37.3783Z" fill="#333333"/>
<path d="M59.9294 37.3783H47.6944C47.1611 37.3783 46.7286 37.8113 46.7286 38.3451C46.7286 38.8794 47.1611 39.3119 47.6944 39.3119H59.9294C60.4632 39.3119 60.8957 38.8794 60.8957 38.3451C60.8957 37.8113 60.4632 37.3783 59.9294 37.3783Z" fill="#333333"/>
<path d="M44.2169 41.1171H38.0355C37.5017 41.1171 37.0692 41.5501 37.0692 42.0844C37.0692 42.6182 37.5017 43.0512 38.0355 43.0512H44.2169C44.7507 43.0512 45.1832 42.6182 45.1832 42.0844C45.1832 41.5501 44.7507 41.1171 44.2169 41.1171Z" fill="#333333"/>
<path d="M59.9294 41.1171H47.6944C47.1611 41.1171 46.7286 41.5501 46.7286 42.0844C46.7286 42.6182 47.1611 43.0512 47.6944 43.0512H59.9294C60.4632 43.0512 60.8957 42.6182 60.8957 42.0844C60.8957 41.5501 60.4632 41.1171 59.9294 41.1171Z" fill="#333333"/>
<path d="M60.9249 17.5723C60.9249 16.1947 59.8056 15.0736 58.4294 15.0736H39.5355C38.1593 15.0736 37.0395 16.1947 37.0395 17.5723V32.96C37.0395 34.3377 38.1593 35.4587 39.5355 35.4587H58.4294C59.8056 35.4587 60.9249 34.3377 60.9249 32.96V17.5723ZM58.9934 32.96C58.9934 33.2715 58.7401 33.5246 58.4294 33.5246H39.5355C39.2243 33.5246 38.9716 33.2715 38.9716 32.96V31.0697L46.0463 23.9908L50.9291 29.4995C51.2831 29.8992 51.8939 29.9355 52.2927 29.5811C52.692 29.2267 52.7283 28.6158 52.3743 28.2161L51.9312 27.7165L54.1145 25.5318L58.9934 31.0364V32.96ZM58.9934 28.1223L55.2757 23.9283C54.9973 23.6143 54.5969 23.4268 54.1775 23.4142C53.756 23.4021 53.3471 23.5649 53.0506 23.8618L50.6467 26.2668L47.2075 22.3873C46.929 22.0728 46.5287 21.8853 46.1093 21.8732C45.6903 21.8616 45.2789 22.0234 44.9823 22.3203L38.9716 28.335V17.5723C38.9716 17.2608 39.2243 17.0073 39.5355 17.0073H58.4294C58.7406 17.0073 58.9934 17.2608 58.9934 17.5723V28.1223Z" fill="#333333"/>
</svg>
