<svg width="45" height="45" viewBox="0 0 45 45" fill="none" xmlns="http://www.w3.org/2000/svg">
<path d="M42.2619 11.6222L42.0464 11.25C38.1352 4.53186 30.8413 0 22.5002 0C14.1587 0 6.86476 4.53186 2.95405 11.25L2.73855 11.6222C1.23005 14.3317 0.270179 17.3822 0 20.625V24.375C0.270179 27.6178 1.23005 30.6683 2.73855 33.3769L2.95405 33.75C6.86476 40.4681 14.1587 45 22.5002 45C30.8413 45 38.1352 40.4681 42.0464 33.75L42.2619 33.3769C43.7704 30.6674 44.7303 27.6178 45 24.375V20.625C44.7303 17.3822 43.7704 14.3317 42.2619 11.6222ZM33.754 20.625C33.6796 18.6552 33.4894 16.772 33.1939 15H39.7379C40.5094 16.7532 41.0263 18.642 41.2248 20.625H33.754ZM22.5002 41.25C20.3723 41.25 18.0997 38.3615 16.6137 33.75H28.3872C26.9003 38.3615 24.6277 41.25 22.5002 41.25ZM15.658 30C15.3267 28.2628 15.1025 26.3745 15.0152 24.375H29.9848C29.8975 26.3745 29.6738 28.2628 29.3425 30H15.658ZM15.0152 20.625C15.1025 18.6255 15.3267 16.7372 15.658 15H29.3425C29.6738 16.7372 29.8975 18.6255 29.9848 20.625H15.0152ZM22.5002 3.75C24.6277 3.75 26.9003 6.6394 28.3863 11.25H16.6137C18.0997 6.6394 20.3723 3.75 22.5002 3.75ZM37.5209 11.25H32.3723C31.7373 8.96255 30.9084 6.94702 29.9228 5.27527C32.9522 6.57669 35.5589 8.65677 37.5209 11.25ZM15.0781 5.27527C14.0921 6.94702 13.2631 8.96255 12.6277 11.25H7.47955C9.44157 8.65677 12.0482 6.57669 15.0781 5.27527ZM5.26206 15H11.8061C11.5116 16.772 11.3204 18.6552 11.2464 20.625H3.7747C3.9732 18.642 4.48966 16.7532 5.26206 15ZM11.2464 24.375C11.3204 26.3448 11.5106 28.228 11.8061 30H5.26206C4.49058 28.2468 3.97412 26.358 3.77562 24.375H11.2464ZM7.47955 33.75H12.6277C13.2631 36.0374 14.0921 38.053 15.0772 39.7247C12.0482 38.4233 9.44157 36.3432 7.47955 33.75ZM29.9219 39.7247C30.9084 38.053 31.7373 36.0374 32.3714 33.75H37.52C35.5589 36.3432 32.9522 38.4233 29.9219 39.7247ZM39.7389 30H33.1948C33.4894 28.228 33.6805 26.3448 33.7549 24.375H41.2267C41.0273 26.358 40.5103 28.2468 39.7389 30Z" fill="#0C1141"/>
</svg>
