<svg width="42" height="42" viewBox="0 0 42 42" fill="none" xmlns="http://www.w3.org/2000/svg">
<path d="M8.15775 6.05176L11.9472 9.84125L9.84156 11.9469L6.05208 8.15744L8.15775 6.05176Z" fill="#0C1141"/>
<path d="M12.5214 2.52722H15.5V7.88757H12.5214V2.52722Z" fill="#0C1141"/>
<path d="M2.4844 12.5632H7.8458V15.5411H2.4844V12.5632Z" fill="#0C1141"/>
<path d="M32.5827 30.4763L36.3745 34.2676L34.2685 36.3738L30.4767 32.5826L32.5827 30.4763Z" fill="#0C1141"/>
<path d="M34.5343 26.9251H39.8947V29.903H34.5343V26.9251Z" fill="#0C1141"/>
<path d="M26.8802 34.5771H29.8587V39.9386H26.8802V34.5771Z" fill="#0C1141"/>
<path d="M24.609 10.0641C24.4941 10.0641 24.3267 10.0933 24.1886 10.2315L18.6842 15.736L14.8938 11.9457L20.3983 6.44119C21.5561 5.2834 23.0832 4.70393 24.609 4.70393C26.1356 4.70393 27.6627 5.28291 28.8204 6.4407L30.2951 7.91546L37.425 0.784795C38.4714 -0.261598 40.1683 -0.261598 41.2147 0.784795C42.2618 1.83184 42.2618 3.52858 41.2147 4.57514L34.0843 11.7056L35.98 13.6007C38.2969 15.9176 38.2969 19.708 35.9806 22.0242L30.4762 27.5287L26.6865 23.7383L32.1909 18.2339C32.3285 18.0956 32.3577 17.9289 32.3577 17.8128C32.3577 17.6967 32.3285 17.5293 32.1903 17.3906L30.2951 15.4954L28.5804 17.2101C27.534 18.2572 25.8378 18.2572 24.7907 17.2101C23.7437 16.1631 23.7437 14.4668 24.7907 13.4204L26.5054 11.7057L25.0308 10.2316C24.8925 10.0933 24.7252 10.0641 24.609 10.0641Z" fill="#0C1141"/>
<path d="M0.78479 37.4256L7.94497 30.266L6.47087 28.7919C4.15398 26.475 4.15398 22.6853 6.47021 20.3684L11.9455 14.8931L15.7358 18.6835L10.2613 24.1582C10.0367 24.3828 10.0367 24.7764 10.2613 25.001L11.7354 26.4751L13.4197 24.7907C14.4668 23.7437 16.163 23.7437 17.2094 24.7907C18.2565 25.8371 18.2565 27.5334 17.2094 28.5804L15.5251 30.2647L17.4214 32.1611C17.5596 32.2993 17.7269 32.3285 17.8425 32.3285C17.9574 32.3285 18.1248 32.2993 18.2629 32.1611L23.7375 26.6858L27.5279 30.4761L22.0532 35.9514C20.8954 37.1092 19.3683 37.6887 17.8425 37.6887C16.3159 37.6887 14.7888 37.1092 13.6311 35.9514L11.7347 34.0551L4.57513 41.2147C3.52808 42.2618 1.83118 42.2618 0.78479 41.2147C-0.2616 40.1682 -0.2616 38.4715 0.78479 37.4256Z" fill="#0C1141"/>
</svg>
