<svg width="42" height="37" viewBox="0 0 42 37" fill="none" xmlns="http://www.w3.org/2000/svg">
<path d="M12.2028 21.4581C13.3831 21.4581 14.524 21.3825 15.6035 21.2418V9.50969C14.5241 9.36909 13.3831 9.2935 12.2028 9.2935C5.46344 9.2935 0.000104581 11.7502 0.000104581 14.7807V15.9708C0.000104581 19.0012 5.46344 21.4581 12.2028 21.4581Z" fill="#0C1141"/>
<path d="M12.2028 27.5842C13.3831 27.5842 14.524 27.5086 15.6035 27.3681V23.9292C14.5237 24.0698 13.3834 24.1464 12.2028 24.1464C6.32006 24.1464 1.41007 22.2744 0.256747 19.783C0.0887896 20.1459 0.000104581 20.5217 0.000104581 20.9069V22.0969C0.000104581 25.1275 5.46344 27.5842 12.2028 27.5842Z" fill="#0C1141"/>
<path d="M15.6034 30.0554C14.5236 30.196 13.3833 30.2727 12.2027 30.2727C6.31996 30.2727 1.40997 28.4007 0.256643 25.9093C0.088685 26.2721 0 26.6479 0 27.0331V28.2231C0 31.2538 5.46333 33.7104 12.2027 33.7104C13.5504 33.7104 14.8467 33.6119 16.0589 33.4305C15.7584 32.8211 15.6034 32.1784 15.6034 31.5127V30.0554Z" fill="#0C1141"/>
<path d="M29.7973 0C23.058 0 17.5947 2.45666 17.5947 5.48724V6.67726C17.5947 9.70783 23.058 12.1645 29.7973 12.1645C36.5366 12.1645 42 9.70783 42 6.67726V5.48724C42 2.45666 36.5366 0 29.7973 0Z" fill="#0C1141"/>
<path d="M29.7973 14.8529C23.9146 14.8529 19.0046 12.981 17.8513 10.4895C17.6834 10.8523 17.5947 11.2281 17.5947 11.6134V12.8034C17.5947 15.834 23.058 18.2907 29.7973 18.2907C36.5366 18.2907 42 15.834 42 12.8034V11.6134C42 11.2281 41.9113 10.8523 41.7434 10.4895C40.59 12.981 35.68 14.8529 29.7973 14.8529Z" fill="#0C1141"/>
<path d="M29.7973 20.9792C23.9146 20.9792 19.0046 19.1072 17.8513 16.6158C17.6834 16.9786 17.5947 17.3544 17.5947 17.7397V18.9297C17.5947 21.9604 23.058 24.417 29.7973 24.417C36.5366 24.417 42 21.9604 42 18.9297V17.7397C42 17.3544 41.9113 16.9786 41.7434 16.6158C40.59 19.1073 35.68 20.9792 29.7973 20.9792Z" fill="#0C1141"/>
<path d="M29.7973 27.4361C23.9146 27.4361 19.0046 25.5641 17.8513 23.0727C17.6834 23.4356 17.5947 23.8113 17.5947 24.1965V25.3866C17.5947 28.4172 23.058 30.8738 29.7973 30.8738C36.5366 30.8738 42 28.4172 42 25.3866V24.1965C42 23.8113 41.9113 23.4354 41.7434 23.0727C40.59 25.564 35.68 27.4361 29.7973 27.4361Z" fill="#0C1141"/>
<path d="M29.7973 33.5622C23.9146 33.5622 19.0046 31.6904 17.8513 29.199C17.6834 29.5619 17.5947 29.9378 17.5947 30.3227V31.5128C17.5947 34.5433 23.058 37 29.7973 37C36.5366 37 42 34.5433 42 31.5128V30.3226C42 29.9374 41.9113 29.5616 41.7434 29.1989C40.59 31.6903 35.68 33.5622 29.7973 33.5622Z" fill="#0C1141"/>
</svg>
