<svg width="50" height="30" viewBox="0 0 50 30" fill="none" xmlns="http://www.w3.org/2000/svg">
<path d="M30.7102 17.6495C33.2071 20.5129 33.0843 24.9558 30.4441 27.697C28.9705 29.2357 26.9955 30 25.0307 30C23.1068 30 21.1932 29.2663 19.7298 27.8091C19.0647 27.1467 18.5428 26.3825 18.1846 25.5774L8.51412 6.90897C8.25829 6.37908 8.81089 5.8288 9.34302 6.08356L28.0905 15.7133C29.0626 16.1413 29.9529 16.7935 30.7102 17.6495ZM27.2923 20.2785C26.668 19.6569 25.8494 19.341 25.0307 19.341C24.212 19.341 23.3934 19.6569 22.7589 20.2785C21.5104 21.5217 21.5104 23.5496 22.7589 24.7928C23.3831 25.4144 24.2018 25.7303 25.0307 25.7303C25.8494 25.7303 26.668 25.4144 27.2923 24.7928C28.551 23.5394 28.551 21.5217 27.2923 20.2785ZM4.95293 24.8947C4.95293 21.3689 5.88416 17.9042 7.65453 14.8777C8.34016 13.6957 7.94106 12.1875 6.75399 11.5048C5.56693 10.822 4.05239 11.2194 3.36676 12.4015C1.1666 16.1821 0 20.5027 0 24.8947C0 26.2602 1.1052 27.3607 2.47646 27.3607C3.8375 27.3607 4.95293 26.2602 4.95293 24.8947ZM50 24.8947C50 11.1685 38.7843 0 25 0C21.797 0 18.6758 0.591033 15.7286 1.7731C14.4597 2.28261 13.8457 3.70924 14.3471 4.97283C14.8588 6.23641 16.2914 6.84783 17.5604 6.34851C19.9243 5.41101 22.4314 4.93207 25 4.93207C36.052 4.93207 45.0471 13.8893 45.0471 24.8947C45.0471 26.2602 46.1523 27.3607 47.5235 27.3607C48.8948 27.3607 50 26.2602 50 24.8947Z" fill="#0C1141"/>
</svg>
