<svg width="46" height="30" viewBox="0 0 46 30" fill="none" xmlns="http://www.w3.org/2000/svg">
<path d="M44.207 2.57529C42.5466 0.746129 39.4809 0 33.6261 0H12.3734C6.38465 0 3.26704 0.794258 1.61282 2.74167C0 4.64041 0 7.43805 0 11.3101V18.6901C0 26.1914 1.9136 30 12.3734 30H33.6263C38.7035 30 41.5169 29.3416 43.337 27.7274C45.2036 26.072 46 23.3693 46 18.6901V11.3101C46 7.2267 45.8752 4.41256 44.207 2.57529ZM29.5321 16.0189L19.8813 20.6931C19.6656 20.7976 19.4297 20.8494 19.194 20.8494C18.9272 20.8494 18.661 20.7828 18.4252 20.6506C17.9813 20.4013 17.7101 19.9553 17.7101 19.4743V10.1561C17.7101 9.67589 17.9805 9.23036 18.4236 8.98091C18.8668 8.73147 19.4181 8.71442 19.8779 8.93581L29.5287 13.5798C30.0197 13.816 30.3281 14.2858 30.3288 14.7983C30.3294 15.3112 30.0224 15.7816 29.5321 16.0189Z" fill="white"/>
</svg>
